<?xml version="1.0" encoding="utf-8"?>
<!-- Generator: Adobe Illustrator 24.1.0, SVG Export Plug-In . SVG Version: 6.00 Build 0)  -->
<svg version="1.1" id="Capa_1" xmlns="http://www.w3.org/2000/svg" xmlns:xlink="http://www.w3.org/1999/xlink" x="0px" y="0px"
	 viewBox="0 0 103.2 103.2" style="enable-background:new 0 0 103.2 103.2;" xml:space="preserve">
<style type="text/css">
	.st0{opacity:0.2;}
	.st1{fill:#091847;}
	.st2{fill:none;}
</style>
<g id="Capa_2_1_">
	<g id="_ÎÓÈ_1">
		<g class="st0">
			<path class="st1" d="M12.6,9.2L12.6,9.2l-1.4,0.7l-0.2-0.8l1.7-0.9h0.9V16h-1L12.6,9.2z"/>
		</g>
		<g class="st0">
			<path class="st1" d="M37.7,12c0,2.6-1,4.1-2.7,4.1c-1.5,0-2.6-1.4-2.6-4s1.1-4.1,2.7-4.1S37.7,9.5,37.7,12z M33.5,12.1
				c0,2,0.6,3.2,1.6,3.2s1.6-1.3,1.6-3.2s-0.5-3.2-1.6-3.2C34.2,8.9,33.5,10,33.5,12.1L33.5,12.1z"/>
		</g>
		<g class="st0">
			<path class="st1" d="M62.4,9.2L62.4,9.2l-1.4,0.7l-0.2-0.8l1.7-0.9h0.9V16h-1L62.4,9.2z"/>
		</g>
		<g class="st0">
			<path class="st1" d="M92.4,9.2L92.4,9.2l-1.4,0.7l-0.2-0.8l1.7-0.9h0.9V16h-1L92.4,9.2z"/>
		</g>
		<g class="st0">
			<path class="st1" d="M8.8,26.7L8.8,26.7l-0.9,0.5l-0.1-0.5L8.9,26h0.6v5.1H8.8V26.7z"/>
		</g>
		<g class="st0">
			<path class="st1" d="M25,28.5c0,1.7-0.6,2.7-1.8,2.7s-1.7-0.9-1.7-2.6s0.8-2.6,1.8-2.6S25,26.9,25,28.5z M22.2,28.6
				c0,1.3,0.4,2.1,1,2.1s1-0.8,1-2.1s-0.3-2-1-2S22.3,27.2,22.2,28.6L22.2,28.6z"/>
		</g>
		<g class="st0">
			<path class="st1" d="M76.1,26.7L76.1,26.7l-0.9,0.5L75,26.6l1.1-0.6h0.6v5.1H76L76.1,26.7z"/>
		</g>
		<g class="st0">
			<path class="st1" d="M92.3,28.5c0,1.7-0.6,2.7-1.8,2.7s-1.7-0.9-1.7-2.6s0.7-2.6,1.8-2.6S92.3,26.9,92.3,28.5z M89.6,28.6
				c0,1.3,0.4,2.1,1,2.1s1-0.8,1-2.1s-0.3-2-1-2S89.6,27.2,89.6,28.6z"/>
		</g>
		<g class="st0">
			<path class="st1" d="M41,26.7L41,26.7l-0.9,0.5L40,26.6l1.1-0.6h0.6v5.1H41V26.7z"/>
		</g>
		<g class="st0">
			<path class="st1" d="M60.4,26.7L60.4,26.7l-0.9,0.5l-0.1-0.5l1.1-0.6h0.6v5.1h-0.7L60.4,26.7z"/>
		</g>
		<g class="st0">
			<path class="st1" d="M8.8,59.4L8.8,59.4l-0.9,0.5l-0.1-0.5l1.1-0.6h0.6v5H8.8V59.4z"/>
		</g>
		<g class="st0">
			<path class="st1" d="M23.1,59.3L23.1,59.3l-0.9,0.5l-0.1-0.5l1.1-0.6h0.6v5h-0.7L23.1,59.3z"/>
		</g>
		<g class="st0">
			<path class="st1" d="M77.9,61.2c0,1.7-0.6,2.7-1.8,2.7s-1.7-0.9-1.7-2.6s0.7-2.6,1.8-2.6S77.9,59.6,77.9,61.2z M75.2,61.3
				c0,1.3,0.4,2,1,2s1-0.8,1-2.1s-0.3-2.1-1-2.1S75.2,59.9,75.2,61.3z"/>
		</g>
		<g class="st0">
			<path class="st1" d="M90.4,59.3L90.4,59.3l-0.9,0.5l-0.1-0.5l1.1-0.6h0.6v5h-0.7L90.4,59.3z"/>
		</g>
		<g class="st0">
			<path class="st1" d="M42.9,61.2c0,1.7-0.6,2.7-1.8,2.7s-1.7-0.9-1.7-2.6s0.7-2.6,1.8-2.6S42.9,59.6,42.9,61.2z M40.1,61.3
				c0,1.3,0.4,2,1,2s1-0.8,1-2.1s-0.3-2.1-1-2.1S40.2,59.9,40.1,61.3z"/>
		</g>
		<g class="st0">
			<path class="st1" d="M60.4,59.3L60.4,59.3l-0.9,0.5l-0.1-0.5l1.1-0.6h0.6v5h-0.7L60.4,59.3z"/>
		</g>
		<g class="st0">
			<path class="st1" d="M15.5,44.7c0,2.7-1,4.1-2.7,4.1c-1.5,0-2.6-1.4-2.6-4s1.1-4.1,2.7-4.1S15.5,42.2,15.5,44.7z M11.3,44.8
				c0,2,0.6,3.2,1.6,3.2s1.6-1.3,1.6-3.2s-0.5-3.2-1.6-3.2C12,41.6,11.3,42.7,11.3,44.8z"/>
		</g>
		<g class="st0">
			<path class="st1" d="M34.8,41.8L34.8,41.8l-1.4,0.7l-0.2-0.8l1.7-0.9h0.9v7.8h-1L34.8,41.8z"/>
		</g>
		<g class="st0">
			<path class="st1" d="M65.3,44.7c0,2.7-1,4.1-2.7,4.1c-1.5,0-2.6-1.4-2.6-4s1.1-4,2.7-4C64.3,40.8,65.3,42.2,65.3,44.7z
				 M61.1,44.8c0,2,0.6,3.2,1.6,3.2s1.6-1.3,1.6-3.2s-0.5-3.2-1.6-3.2C61.8,41.5,61.1,42.7,61.1,44.8z"/>
		</g>
		<g class="st0">
			<path class="st1" d="M92.4,41.8L92.4,41.8l-1.4,0.7l-0.2-0.8l1.7-0.9h0.9v7.8h-1L92.4,41.8z"/>
		</g>
		<g class="st0">
			<path class="st1" d="M8.8,92.1L8.8,92.1l-0.9,0.5L7.8,92l1.1-0.6h0.6v5H8.8V92.1z"/>
		</g>
		<g class="st0">
			<path class="st1" d="M25,93.9c0,1.7-0.6,2.7-1.8,2.7s-1.7-0.9-1.7-2.6s0.7-2.6,1.8-2.6S25,92.3,25,93.9z M22.3,94
				c0,1.3,0.4,2.1,1,2.1s1-0.8,1-2.1s-0.3-2.1-1-2.1S22.3,92.6,22.3,94z"/>
		</g>
		<g class="st0">
			<path class="st1" d="M77.9,93.9c0,1.7-0.6,2.7-1.8,2.7s-1.7-0.9-1.7-2.6s0.7-2.6,1.8-2.6S77.9,92.3,77.9,93.9z M75.2,94
				c0,1.3,0.4,2.1,1,2.1s1-0.8,1-2.1s-0.3-2.1-1-2.1S75.2,92.6,75.2,94z"/>
		</g>
		<g class="st0">
			<path class="st1" d="M90.4,92.1L90.4,92.1l-0.9,0.5L89.4,92l1.1-0.6h0.6v5h-0.7V92.1z"/>
		</g>
		<g class="st0">
			<path class="st1" d="M41,92.1L41,92.1l-0.9,0.5L40,92l1.1-0.6h0.6v5H41V92.1z"/>
		</g>
		<g class="st0">
			<path class="st1" d="M60.4,92.1L60.4,92.1l-0.9,0.5L59.4,92l1.1-0.6h0.6v5h-0.7V92.1z"/>
		</g>
		<g class="st0">
			<path class="st1" d="M12.6,74.6L12.6,74.6l-1.4,0.7l-0.2-0.8l1.7-0.9h0.9v7.8h-1L12.6,74.6z"/>
		</g>
		<g class="st0">
			<path class="st1" d="M37.7,77.4c0,2.7-1,4.1-2.7,4.1c-1.5,0-2.6-1.4-2.6-4s1.1-4,2.7-4S37.7,74.9,37.7,77.4z M33.5,77.5
				c0,2,0.6,3.2,1.6,3.2s1.6-1.3,1.6-3.2s-0.5-3.2-1.6-3.2C34.2,74.2,33.5,75.4,33.5,77.5z"/>
		</g>
		<g class="st0">
			<path class="st1" d="M62.4,74.6L62.4,74.6l-1.4,0.7l-0.2-0.8l1.7-0.9h0.9v7.8h-1L62.4,74.6z"/>
		</g>
		<g class="st0">
			<path class="st1" d="M95.3,77.4c0,2.7-1,4.1-2.7,4.1c-1.5,0-2.6-1.4-2.6-4s1.1-4,2.7-4S95.3,74.9,95.3,77.4z M91.1,77.5
				c0,2,0.6,3.2,1.6,3.2s1.6-1.3,1.6-3.2s-0.5-3.2-1.6-3.2C91.8,74.2,91.1,75.4,91.1,77.5z"/>
		</g>
		<rect class="st2" width="103.2" height="103.2"/>
	</g>
</g>
</svg>
